<svg id="Capa_1" data-name="Capa 1" xmlns="http://www.w3.org/2000/svg" xmlns:xlink="http://www.w3.org/1999/xlink" viewBox="0 0 974 890"><defs><style>.cls-1{fill:#fff;}.cls-2{fill:#235fc9;stroke:#000;}.cls-12,.cls-13,.cls-2{stroke-miterlimit:10;}.cls-3{font-size:100px;}.cls-3,.cls-8{font-family:MyriadPro-Regular, Myriad Pro;}.cls-4{letter-spacing:0em;}.cls-5{letter-spacing:-0.01em;}.cls-6{letter-spacing:-0.01em;}.cls-7{letter-spacing:0em;}.cls-8{font-size:48px;fill:#d11cbc;}.cls-9{letter-spacing:-0.01em;}.cls-10{letter-spacing:0.01em;}.cls-11{letter-spacing:-0.01em;}.cls-12{fill:url(#Degradado_sin_nombre_24);stroke:url(#Degradado_sin_nombre_6);}.cls-13{fill:#2e74ff;stroke:url(#Degradado_sin_nombre_6-2);}.cls-14{fill:#fffd8f;}.cls-15{fill:#ff388f;}</style><linearGradient id="Degradado_sin_nombre_24" x1="304.5" y1="515.5" x2="304.5" y2="396.5" gradientUnits="userSpaceOnUse"><stop offset="0" stop-color="#ed1e79"/><stop offset="0.85" stop-color="#fef8fb"/><stop offset="0.94" stop-color="#fff"/></linearGradient><linearGradient id="Degradado_sin_nombre_6" x1="227" y1="456.07" x2="382" y2="456.07" gradientUnits="userSpaceOnUse"><stop offset="0" stop-color="#ed1e79"/><stop offset="1" stop-color="#fff"/></linearGradient><linearGradient id="Degradado_sin_nombre_6-2" x1="765" y1="435.32" x2="1036" y2="435.32" xlink:href="#Degradado_sin_nombre_6"/></defs><title>logo-ali</title><rect class="cls-1" width="974" height="890"/><path class="cls-2" d="M778.5,649.5" transform="translate(-375 -99)"/><text class="cls-3" transform="translate(239.37 631)">ALI - <tspan class="cls-4" x="205.4" y="0">S</tspan><tspan class="cls-5" x="254.4" y="0">t</tspan><tspan x="286.9" y="0">o</tspan><tspan class="cls-6" x="341.79" y="0">r</tspan><tspan class="cls-7" x="373.5" y="0">e</tspan></text><text class="cls-8" transform="translate(159.11 712.41)"><tspan class="cls-9">A</tspan><tspan x="28.8" y="0">cademic Language </tspan><tspan class="cls-10" x="417.4" y="0">I</tspan><tspan x="429.35" y="0">nstitu</tspan><tspan class="cls-11" x="544.46" y="0">t</tspan><tspan x="560.06" y="0">e</tspan></text><polygon class="cls-12" points="227.5 431.5 227.5 396.5 381.5 448.5 381.5 515.5 227.5 431.5"/><path class="cls-13" d="M765.5,555.5v18s144.09-27.83,202-90c68-73,68-140,68-140l-55-46s-16.15,110.86-54,153C873.5,509.5,765.5,555.5,765.5,555.5Z" transform="translate(-375 -99)"/><path class="cls-14" d="M765,584s159-45,209-89,75-134,75-134l40,104s-32,63-95,87c-63.66,24.25-229,43-229,43Z" transform="translate(-375 -99)"/><path class="cls-15" d="M766,606v9s191.5-2.83,261-20c85-21,102-49,102-49l-27-64s-40,55-100,80C938.19,588.59,766,606,766,606Z" transform="translate(-375 -99)"/><path class="cls-15" d="M603,496S766,384,779,229l181,50s22,169-203,273Z" transform="translate(-375 -99)"/></svg>